<svg width="20" height="20" viewBox="0 0 20 20" fill="none" xmlns="http://www.w3.org/2000/svg">
<path d="M4.00039 5.20039H2.80039C2.48213 5.20039 2.17691 5.32682 1.95186 5.55186C1.72682 5.77691 1.60039 6.08213 1.60039 6.40039V17.2004C1.60039 17.5187 1.72682 17.8239 1.95186 18.0489C2.17691 18.274 2.48213 18.4004 2.80039 18.4004H13.6004C13.9187 18.4004 14.2239 18.274 14.4489 18.0489C14.674 17.8239 14.8004 17.5187 14.8004 17.2004V16.0004H6.40039C5.76387 16.0004 5.15342 15.7475 4.70334 15.2974C4.25325 14.8474 4.00039 14.2369 4.00039 13.6004V5.20039ZM5.20039 4.00039V13.6004C5.20039 13.9187 5.32682 14.2239 5.55186 14.4489C5.77691 14.674 6.08213 14.8004 6.40039 14.8004H16.0004V17.2004C16.0004 17.8369 15.7475 18.4474 15.2974 18.8974C14.8474 19.3475 14.2369 19.6004 13.6004 19.6004H2.80039C2.16387 19.6004 1.55342 19.3475 1.10333 18.8974C0.653247 18.4474 0.400391 17.8369 0.400391 17.2004V6.40039C0.400391 5.76387 0.653247 5.15342 1.10333 4.70334C1.55342 4.25325 2.16387 4.00039 2.80039 4.00039H5.20039ZM6.40039 1.60039C6.08213 1.60039 5.77691 1.72682 5.55186 1.95186C5.32682 2.17691 5.20039 2.48213 5.20039 2.80039V13.6004C5.20039 13.9187 5.32682 14.2239 5.55186 14.4489C5.77691 14.674 6.08213 14.8004 6.40039 14.8004H17.2004C17.5187 14.8004 17.8239 14.674 18.0489 14.4489C18.274 14.2239 18.4004 13.9187 18.4004 13.6004V2.80039C18.4004 2.48213 18.274 2.17691 18.0489 1.95186C17.8239 1.72682 17.5187 1.60039 17.2004 1.60039H6.40039ZM6.40039 0.400391H17.2004C17.8369 0.400391 18.4474 0.653247 18.8974 1.10333C19.3475 1.55342 19.6004 2.16387 19.6004 2.80039V13.6004C19.6004 14.2369 19.3475 14.8474 18.8974 15.2974C18.4474 15.7475 17.8369 16.0004 17.2004 16.0004H6.40039C5.76387 16.0004 5.15342 15.7475 4.70334 15.2974C4.25325 14.8474 4.00039 14.2369 4.00039 13.6004V2.80039C4.00039 2.16387 4.25325 1.55342 4.70334 1.10333C5.15342 0.653247 5.76387 0.400391 6.40039 0.400391Z" fill="#242529"/>
</svg>
