<svg width="90" height="148" viewBox="0 0 90 148" fill="none" xmlns="http://www.w3.org/2000/svg">
<path d="M8.88027 0.0410156C4.14561 0.0410156 0.280273 3.90637 0.280273 8.64102V139.361C0.280273 144.096 4.14561 147.961 8.88027 147.961H81.1203C85.8549 147.961 89.7203 144.096 89.7203 139.361V8.64102C89.7203 3.90637 85.8549 0.0410156 81.1203 0.0410156H8.88027ZM8.88027 3.48102H81.1203C84.0087 3.48102 86.2803 5.75262 86.2803 8.64102V17.241H3.72027V8.64102C3.72027 5.75262 5.99186 3.48102 8.88027 3.48102ZM34.6803 8.64102C33.7303 8.64102 32.9603 9.41106 32.9603 10.361C32.9603 11.311 33.7303 12.081 34.6803 12.081H55.3203C56.2702 12.081 57.0403 11.311 57.0403 10.361C57.0403 9.41106 56.2702 8.64102 55.3203 8.64102H34.6803ZM3.72027 20.681H86.2803V120.441H3.72027V20.681ZM51.719 49.8674C51.4166 49.8989 51.128 50.01 50.8825 50.1894C50.637 50.3687 50.4434 50.61 50.3215 50.8885L33.1215 88.7285C33.0179 88.9343 32.9567 89.1588 32.9414 89.3886C32.9262 89.6185 32.9573 89.8491 33.0329 90.0667C33.1085 90.2843 33.227 90.4845 33.3815 90.6554C33.5359 90.8264 33.7231 90.9646 33.9319 91.0618C34.1408 91.159 34.367 91.2133 34.5973 91.2214C34.8275 91.2295 35.057 91.1913 35.2722 91.1091C35.4873 91.0268 35.6838 90.9021 35.8499 90.7425C36.016 90.5828 36.1483 90.3914 36.239 90.1797L53.439 52.3397C53.5751 52.0639 53.6348 51.7566 53.6119 51.45C53.5889 51.1433 53.4842 50.8484 53.3085 50.5959C53.1329 50.3435 52.8928 50.1428 52.6133 50.0147C52.3337 49.8865 52.0249 49.8356 51.719 49.8674ZM27.639 56.7474C27.1929 56.8064 26.7877 57.038 26.5103 57.3924L16.1903 69.4324C15.9323 69.7416 15.791 70.1315 15.791 70.5341C15.791 70.9368 15.9323 71.3268 16.1903 71.636L26.5103 83.676C26.639 83.8903 26.8128 84.074 27.0197 84.2143C27.2266 84.3545 27.4616 84.4481 27.7083 84.4883C27.955 84.5285 28.2075 84.5144 28.4482 84.4471C28.6889 84.3798 28.9121 84.2608 29.1022 84.0985C29.2922 83.9361 29.4446 83.7342 29.5488 83.507C29.6529 83.2798 29.7062 83.0326 29.7051 82.7826C29.704 82.5327 29.6484 82.286 29.5422 82.0597C29.436 81.8335 29.2818 81.633 29.0903 81.4724L19.7378 70.561L29.0903 59.596C29.3177 59.3374 29.4623 59.0163 29.5052 58.6746C29.5482 58.3329 29.4876 57.9862 29.3312 57.6793C29.1749 57.3724 28.93 57.1195 28.6283 56.9533C28.3266 56.7872 27.982 56.7154 27.639 56.7474ZM61.9853 56.7474C61.6742 56.786 61.3796 56.9088 61.1333 57.1026C60.887 57.2965 60.6983 57.5538 60.5877 57.847C60.477 58.1403 60.4486 58.4582 60.5054 58.7665C60.5623 59.0747 60.7023 59.3616 60.9103 59.596L70.2628 70.561L60.9103 81.4724C60.7188 81.633 60.5645 81.8335 60.4583 82.0597C60.3522 82.286 60.2966 82.5327 60.2954 82.7826C60.2943 83.0326 60.3477 83.2798 60.4518 83.507C60.5559 83.7342 60.7083 83.9361 60.8984 84.0985C61.0885 84.2608 61.3116 84.3798 61.5523 84.4471C61.7931 84.5144 62.0456 84.5285 62.2923 84.4883C62.539 84.4481 62.774 84.3545 62.9809 84.2143C63.1877 84.074 63.3616 83.8903 63.4903 83.676L73.8103 71.636C74.0682 71.3268 74.2095 70.9368 74.2095 70.5341C74.2095 70.1315 74.0682 69.7416 73.8103 69.4324L63.4903 57.3924C63.3128 57.1683 63.0822 56.9918 62.8194 56.8792C62.5567 56.7666 62.27 56.7214 61.9853 56.7474ZM3.72027 123.881H86.2803V139.361C86.2803 142.249 84.0087 144.521 81.1203 144.521H8.88027C5.99186 144.521 3.72027 142.249 3.72027 139.361V123.881ZM45.0003 129.041C42.1505 129.041 39.8403 131.351 39.8403 134.201C39.8403 137.051 42.1505 139.361 45.0003 139.361C47.85 139.361 50.1603 137.051 50.1603 134.201C50.1603 131.351 47.85 129.041 45.0003 129.041Z" fill="#DE002B"/>
</svg>
