<svg width="12" height="14" viewBox="0 0 12 14" fill="none" xmlns="http://www.w3.org/2000/svg">
    <path fill-rule="evenodd" clip-rule="evenodd" d="M0.166992 3.4987C0.166992 3.17653 0.428159 2.91536 0.750326 2.91536H11.2503C11.5725 2.91536 11.8337 3.17653 11.8337 3.4987C11.8337 3.82086 11.5725 4.08203 11.2503 4.08203H0.750326C0.428159 4.08203 0.166992 3.82086 0.166992 3.4987Z" fill="black"/>
    <path fill-rule="evenodd" clip-rule="evenodd" d="M4.83366 1.7487C4.67895 1.7487 4.53058 1.81016 4.42118 1.91955C4.31178 2.02895 4.25033 2.17732 4.25033 2.33203V2.91536H7.75033V2.33203C7.75033 2.17732 7.68887 2.02895 7.57947 1.91955C7.47008 1.81016 7.3217 1.7487 7.16699 1.7487H4.83366ZM8.91699 2.91536V2.33203C8.91699 1.8679 8.73262 1.42278 8.40443 1.09459C8.07624 0.766406 7.63112 0.582031 7.16699 0.582031H4.83366C4.36953 0.582031 3.92441 0.766406 3.59622 1.09459C3.26803 1.42278 3.08366 1.8679 3.08366 2.33203V2.91536H1.91699C1.59483 2.91536 1.33366 3.17653 1.33366 3.4987V11.6654C1.33366 12.1295 1.51803 12.5746 1.84622 12.9028C2.17441 13.231 2.61953 13.4154 3.08366 13.4154H8.91699C9.38112 13.4154 9.82624 13.231 10.1544 12.9028C10.4826 12.5746 10.667 12.1295 10.667 11.6654V3.4987C10.667 3.17653 10.4058 2.91536 10.0837 2.91536H8.91699ZM2.50033 4.08203V11.6654C2.50033 11.8201 2.56178 11.9684 2.67118 12.0778C2.78058 12.1872 2.92895 12.2487 3.08366 12.2487H8.91699C9.0717 12.2487 9.22007 12.1872 9.32947 12.0778C9.43887 11.9684 9.50033 11.8201 9.50033 11.6654V4.08203H2.50033Z" fill="black"/>
    <path fill-rule="evenodd" clip-rule="evenodd" d="M4.83366 5.83203C5.15583 5.83203 5.41699 6.0932 5.41699 6.41536V9.91536C5.41699 10.2375 5.15583 10.4987 4.83366 10.4987C4.51149 10.4987 4.25033 10.2375 4.25033 9.91536V6.41536C4.25033 6.0932 4.51149 5.83203 4.83366 5.83203Z" fill="black"/>
    <path fill-rule="evenodd" clip-rule="evenodd" d="M7.16699 5.83203C7.48916 5.83203 7.75033 6.0932 7.75033 6.41536V9.91536C7.75033 10.2375 7.48916 10.4987 7.16699 10.4987C6.84483 10.4987 6.58366 10.2375 6.58366 9.91536V6.41536C6.58366 6.0932 6.84483 5.83203 7.16699 5.83203Z" fill="black"/>
</svg>
