<svg width="14" height="14" viewBox="0 0 14 14" fill="none" xmlns="http://www.w3.org/2000/svg">
    <path fill-rule="evenodd" clip-rule="evenodd" d="M7.75451 0.752886C7.98232 0.52508 8.35167 0.52508 8.57947 0.752886L10.9128 3.08622C11.1406 3.31403 11.1406 3.68337 10.9128 3.91118L4.49614 10.3278C4.38674 10.4372 4.23837 10.4987 4.08366 10.4987H1.75033C1.42816 10.4987 1.16699 10.2375 1.16699 9.91537V7.58203C1.16699 7.42732 1.22845 7.27895 1.33785 7.16955L7.75451 0.752886ZM2.33366 7.82366V9.33203H3.84203L9.67537 3.4987L8.16699 1.99032L2.33366 7.82366Z" fill="black"/>
    <path fill-rule="evenodd" clip-rule="evenodd" d="M1.16699 12.8333C1.16699 12.5112 1.42816 12.25 1.75033 12.25H12.2503C12.5725 12.25 12.8337 12.5112 12.8337 12.8333C12.8337 13.1555 12.5725 13.4167 12.2503 13.4167H1.75033C1.42816 13.4167 1.16699 13.1555 1.16699 12.8333Z" fill="black"/>
</svg>
