<svg width="30" height="30" viewBox="0 0 30 30" fill="none" xmlns="http://www.w3.org/2000/svg">
<path d="M27.3368 6.24899L27.9967 7L29.8634 4.8755C29.9509 4.7759 30 4.64084 30 4.5C30 4.35916 29.9509 4.2241 29.8634 4.1245L27.9967 2L27.3368 2.75101L28.4069 3.96888H23V5.03112H28.4069L27.3368 6.24899Z" fill="white"/>
<path d="M24.0033 11L24.6632 10.249L23.5931 9.03112H29V7.96888H23.5931L24.6632 6.75101L24.0033 6L22.1366 8.12449C22.0491 8.2241 22 8.35916 22 8.5C22 8.64083 22.0491 8.7759 22.1366 8.8755L24.0033 11Z" fill="white"/>
<path d="M29.415 14.585C29.0606 14.2294 28.5848 14.021 28.0831 14.0015C27.5814 13.982 27.0909 14.153 26.71 14.48C26.5351 14.1818 26.2853 13.9344 25.9854 13.7625C25.6854 13.5906 25.3457 13.5001 25 13.5C24.7764 13.4968 24.5542 13.5359 24.345 13.615C24.1132 13.6969 23.8994 13.8225 23.715 13.985C23.539 13.6862 23.2884 13.4384 22.9878 13.2657C22.6871 13.093 22.3467 13.0014 22 13C21.6481 13.001 21.3029 13.096 21 13.275V5C21 4.46957 20.7893 3.96086 20.4142 3.58579C20.0391 3.21071 19.5304 3 19 3C18.6481 3.00102 18.3029 3.09595 18 3.275V1.5C17.9988 1.10254 17.8404 0.721699 17.5593 0.440651C17.2783 0.159604 16.8975 0.00118705 16.5 0H4.5C4.10254 0.00118705 3.7217 0.159604 3.44065 0.440651C3.1596 0.721699 3.00119 1.10254 3 1.5V11.5H2.5C1.83696 11.5 1.20107 11.7634 0.732233 12.2322C0.263392 12.7011 0 13.337 0 14V16.045L1 26.525V29.5C1 29.6326 1.05268 29.7598 1.14645 29.8536C1.24021 29.9473 1.36739 30 1.5 30H12.5C12.6326 30 12.7598 29.9473 12.8536 29.8536C12.9473 29.7598 13 29.6326 13 29.5V26.66L14.86 24H15.935L16.5 25.585V29.5C16.5 29.6326 16.5527 29.7598 16.6464 29.8536C16.7402 29.9473 16.8674 30 17 30H27C27.1326 30 27.2598 29.9473 27.3536 29.8536C27.4473 29.7598 27.5 29.6326 27.5 29.5V25.585L29.795 19.155C29.9301 18.7779 29.9994 18.3805 30 17.98V16C30.0002 15.7373 29.9486 15.4771 29.8483 15.2343C29.7479 14.9915 29.6007 14.7709 29.415 14.585ZM12 29H2V27H12V29ZM12.24 26H1.955L1 16V14C1.00119 13.6025 1.1596 13.2217 1.44065 12.9407C1.7217 12.6596 2.10254 12.5012 2.5 12.5H6C6.39782 12.5 6.77936 12.658 7.06066 12.9393C7.34196 13.2206 7.5 13.6022 7.5 14C7.5 14.3978 7.34196 14.7794 7.06066 15.0607C6.77936 15.342 6.39782 15.5 6 15.5H3.5C3.36739 15.5 3.24021 15.5527 3.14645 15.6464C3.05268 15.7402 3 15.8674 3 16V22.5C3.00119 22.8975 3.1596 23.2783 3.44065 23.5593C3.7217 23.8404 4.10254 23.9988 4.5 24H13.64L12.24 26ZM4.5 23C4.36739 23 4.24021 22.9473 4.14645 22.8536C4.05268 22.7598 4 22.6326 4 22.5V21H13V20H4V16.5H6C6.66304 16.5 7.29893 16.2366 7.76777 15.7678C8.23661 15.2989 8.5 14.663 8.5 14C8.5 13.337 8.23661 12.7011 7.76777 12.2322C7.29893 11.7634 6.66304 11.5 6 11.5H4V1.5C4 1.36739 4.05268 1.24021 4.14645 1.14645C4.24021 1.05268 4.36739 1 4.5 1H16.5C16.6326 1 16.7598 1.05268 16.8536 1.14645C16.9473 1.24021 17 1.36739 17 1.5V11.78C16.6964 11.5977 16.3491 11.501 15.995 11.5C15.4663 11.5013 14.9596 11.7119 14.5858 12.0858C14.2119 12.4596 14.0013 12.9663 14 13.495V17.98C14.001 18.3821 14.0703 18.7811 14.205 19.16L15.575 23H4.5ZM19 29H17.5V26H19V29ZM21.5 29H20V26H21.5V29ZM24 29H22.5V26H24V29ZM26.5 29H25V26H26.5V29ZM29 17.98C28.9994 18.2662 28.9504 18.5502 28.855 18.82L26.65 25H17.35L15.145 18.825C15.05 18.5534 15.001 18.2678 15 17.98V13.495C15.0007 13.2298 15.1067 12.9757 15.2947 12.7886C15.4827 12.6016 15.7373 12.4968 16.0025 12.4975C16.2677 12.4982 16.5218 12.6042 16.7089 12.7922C16.8959 12.9802 17.0007 13.2348 17 13.5V17.5H18V5C18.002 4.73539 18.108 4.48217 18.2951 4.29506C18.4822 4.10795 18.7354 4.00196 19 4C19.265 4.00079 19.5189 4.1064 19.7062 4.29377C19.8936 4.48113 19.9992 4.73503 20 5V17.5H21V15C21.002 14.7354 21.108 14.4822 21.2951 14.2951C21.4822 14.1079 21.7354 14.002 22 14C22.265 14.0008 22.5189 14.1064 22.7062 14.2938C22.8936 14.4811 22.9992 14.735 23 15V17.5H24V15.5C24.0001 15.3688 24.0262 15.239 24.0768 15.1179C24.1275 14.9969 24.2016 14.8872 24.295 14.795C24.4007 14.6834 24.5333 14.6008 24.68 14.555C24.7826 14.5181 24.8909 14.4995 25 14.5C25.265 14.5008 25.5189 14.6064 25.7062 14.7938C25.8936 14.9811 25.9992 15.235 26 15.5V18H27V16C27.0008 15.735 27.1064 15.4811 27.2938 15.2938C27.4811 15.1064 27.735 15.0008 28 15C28.2646 15.002 28.5178 15.108 28.7049 15.2951C28.892 15.4822 28.998 15.7354 29 16V17.98Z" fill="white"/>
<path d="M10 2C9.0111 2 8.0444 2.29324 7.22215 2.84265C6.39991 3.39206 5.75904 4.17295 5.3806 5.08658C5.00217 6.00021 4.90315 7.00555 5.09608 7.97545C5.289 8.94536 5.76521 9.83627 6.46447 10.5355C7.16373 11.2348 8.05465 11.711 9.02455 11.9039C9.99446 12.0969 10.9998 11.9978 11.9134 11.6194C12.827 11.241 13.6079 10.6001 14.1573 9.77785C14.7068 8.95561 15 7.98891 15 7C14.9979 5.67457 14.4704 4.40403 13.5332 3.4668C12.596 2.52958 11.3254 2.00212 10 2ZM10 11C9.20888 11 8.43552 10.7654 7.77772 10.3259C7.11993 9.88635 6.60723 9.26164 6.30448 8.53073C6.00173 7.79983 5.92252 6.99556 6.07686 6.21964C6.2312 5.44371 6.61216 4.73098 7.17157 4.17157C7.73098 3.61216 8.44372 3.2312 9.21964 3.07686C9.99557 2.92252 10.7998 3.00173 11.5307 3.30448C12.2616 3.60723 12.8864 4.11992 13.3259 4.77772C13.7654 5.43552 14 6.20887 14 7C13.9985 8.06042 13.5767 9.07699 12.8268 9.82682C12.077 10.5767 11.0604 10.9985 10 11Z" fill="white"/>
<path d="M12 8C11.9984 8.3093 11.9016 8.6106 11.7226 8.86289C11.5437 9.11518 11.2914 9.30622 11 9.41V10H10V9.41C9.70863 9.30622 9.45631 9.11518 9.27738 8.86289C9.09845 8.6106 9.00159 8.3093 9 8H10C10 8.09889 10.0293 8.19556 10.0843 8.27779C10.1392 8.36001 10.2173 8.4241 10.3087 8.46194C10.4 8.49978 10.5006 8.50969 10.5975 8.49039C10.6945 8.4711 10.7836 8.42348 10.8536 8.35355C10.9235 8.28363 10.9711 8.19454 10.9904 8.09755C11.0097 8.00056 10.9998 7.90002 10.9619 7.80866C10.9241 7.7173 10.86 7.63921 10.7778 7.58426C10.6956 7.52932 10.5989 7.5 10.5 7.5C10.1482 7.49727 9.80861 7.37099 9.5405 7.14324C9.2724 6.91549 9.09287 6.60076 9.0333 6.25406C8.97373 5.90735 9.03791 5.55074 9.21461 5.24657C9.39132 4.94239 9.66931 4.70999 10 4.59V4H11V4.59C11.2914 4.69378 11.5437 4.88482 11.7226 5.13711C11.9016 5.3894 11.9984 5.6907 12 6H11C11 5.90111 10.9707 5.80444 10.9157 5.72221C10.8608 5.63999 10.7827 5.5759 10.6913 5.53806C10.6 5.50022 10.4994 5.49031 10.4025 5.50961C10.3055 5.5289 10.2164 5.57652 10.1464 5.64645C10.0765 5.71637 10.0289 5.80546 10.0096 5.90245C9.99031 5.99945 10.0002 6.09998 10.0381 6.19134C10.0759 6.2827 10.14 6.36079 10.2222 6.41573C10.3044 6.47068 10.4011 6.5 10.5 6.5C10.8975 6.50119 11.2783 6.6596 11.5593 6.94065C11.8404 7.2217 11.9988 7.60254 12 8Z" fill="white"/>
</svg>
