<svg width="31" height="31" viewBox="0 0 31 31" fill="none" xmlns="http://www.w3.org/2000/svg">
<path d="M30.5 11C30.7765 11 31 10.776 31 10.5V2.5C31 2.224 30.7765 2 30.5 2H30V0.5C30 0.224 29.7765 0 29.5 0H1.5C1.2235 0 1 0.224 1 0.5V2H0.5C0.2235 2 0 2.224 0 2.5V10.5C0 10.776 0.2235 11 0.5 11H1V28H0.5C0.2235 28 0 28.224 0 28.5V30.5C0 30.776 0.2235 31 0.5 31H30.5C30.7765 31 31 30.776 31 30.5V28.5C31 28.224 30.7765 28 30.5 28H30V11H30.5ZM2 1H29V2H2V1ZM1 3H30V10H1V3ZM29 16H23V13H29V16ZM22 16H16V13H22V16ZM15 16H9V13H15V16ZM8 16H2V13H8V16ZM30 30H1V29H30V30ZM17 28H16V20.5C16 20.224 15.7765 20 15.5 20H5.5C5.2235 20 5 20.224 5 20.5V28H4V19H17V28ZM6 28V21H10V28H6ZM11 21H15V28H11V21ZM27 28H21V19H27V28ZM28 28V18.5C28 18.224 27.7765 18 27.5 18H20.5C20.2235 18 20 18.224 20 18.5V28H18V18.5C18 18.224 17.7765 18 17.5 18H3.5C3.2235 18 3 18.224 3 18.5V28H2V17H29V28H28ZM29 12H2V11H29V12Z" fill="white"/>
<path d="M9.5 4H7.5C7.2235 4 7 4.224 7 4.5V8.5C7 8.776 7.2235 9 7.5 9H9.5C10.327 9 11 8.327 11 7.5C11 7.116 10.855 6.7655 10.617 6.5C10.855 6.2345 11 5.884 11 5.5C11 4.673 10.327 4 9.5 4ZM9.5 8H8V7H9.5C9.776 7 10 7.2245 10 7.5C10 7.7755 9.776 8 9.5 8ZM9.5 6H8V5H9.5C9.776 5 10 5.2245 10 5.5C10 5.7755 9.776 6 9.5 6Z" fill="white"/>
<path d="M14 4C12.897 4 12 4.897 12 6V9H13V7.5H15V9H16V6C16 4.897 15.103 4 14 4ZM13 6.5V6C13 5.4485 13.4485 5 14 5C14.5515 5 15 5.4485 15 6V6.5H13Z" fill="white"/>
<path d="M20 7.00012L17.9 4.20012C17.771 4.02812 17.547 3.95762 17.342 4.02562C17.1375 4.09412 17 4.28462 17 4.50012V9.00012H18V6.00012L20.1 8.80012C20.196 8.92812 20.3455 9.00012 20.5 9.00012C20.5525 9.00012 20.606 8.99162 20.658 8.97462C20.8625 8.90612 21 8.71562 21 8.50012V4.00012H20V7.00012Z" fill="white"/>
<path d="M25 4H24C24 4.709 23.6175 5.346 23 5.685V4H22V9H23V7.315C23.6175 7.654 24 8.291 24 9H25C25 7.9625 24.4595 7.028 23.582 6.5C24.4595 5.972 25 5.0375 25 4Z" fill="white"/>
<path d="M22.5 24H25.5C25.7765 24 26 23.776 26 23.5V20.5C26 20.224 25.7765 20 25.5 20H22.5C22.2235 20 22 20.224 22 20.5V23.5C22 23.776 22.2235 24 22.5 24ZM23 21H25V23H23V21Z" fill="white"/>
</svg>
