<svg width="183" height="48" viewBox="0 0 183 48" fill="none" xmlns="http://www.w3.org/2000/svg">
<path d="M62 29.8177V19.1823H63.5654L66.1106 24.2113L68.6558 19.1823H70.2211V29.8177H68.7514V22.1906L66.1106 27.2044H66.0628L63.4459 22.221V29.8177H62Z" fill="#DE002B"/>
<path d="M76.3651 30C75.0984 30 74.0548 29.4682 73.2343 28.4047C72.4138 27.3412 72.0035 26.0497 72.0035 24.5304V24.5C72.0035 22.9807 72.4178 21.6842 73.2463 20.6105C74.0827 19.5368 75.1303 19 76.3889 19C77.6556 19 78.6992 19.5318 79.5197 20.5953C80.3402 21.6588 80.7505 22.9503 80.7505 24.4696V24.5C80.7505 26.0193 80.3322 27.3158 79.4958 28.3895C78.6673 29.4632 77.6237 30 76.3651 30ZM74.3456 27.174C74.8873 27.9033 75.5684 28.268 76.3889 28.268C77.2095 28.268 77.8826 27.9084 78.4084 27.1892C78.9421 26.4701 79.209 25.5838 79.209 24.5304V24.5C79.209 23.4466 78.9381 22.5552 78.3964 21.826C77.8627 21.0967 77.1856 20.732 76.3651 20.732C75.5445 20.732 74.8674 21.0916 74.3337 21.8108C73.8079 22.5299 73.545 23.4162 73.545 24.4696V24.5C73.545 25.5534 73.8119 26.4448 74.3456 27.174Z" fill="#DE002B"/>
<path d="M82.5262 29.8177V19.1823H86.2783C87.2422 19.1823 87.9711 19.4963 88.465 20.1243C88.8395 20.6004 89.0267 21.1878 89.0267 21.8867V21.9171C89.0267 22.9705 88.6284 23.7606 87.8317 24.2873C88.3734 24.5304 88.7837 24.8494 89.0625 25.2445C89.3493 25.6395 89.4927 26.1814 89.4927 26.8702V26.9006C89.4927 27.8324 89.2139 28.5516 88.6562 29.058C88.0986 29.5645 87.3458 29.8177 86.3978 29.8177H82.5262ZM87.5569 22.221V22.1906C87.5569 21.7652 87.4294 21.436 87.1745 21.203C86.9276 20.9599 86.5651 20.8384 86.0871 20.8384H83.9721V23.6644H85.9796C86.4735 23.6644 86.8599 23.5428 87.1387 23.2997C87.4175 23.0566 87.5569 22.6971 87.5569 22.221ZM88.0229 26.703V26.6727C88.0229 25.7205 87.4494 25.2445 86.3022 25.2445H83.9721V28.1616H86.4098C86.9196 28.1616 87.3139 28.0401 87.5927 27.797C87.8795 27.5437 88.0229 27.1791 88.0229 26.703Z" fill="#DE002B"/>
<path d="M91.2335 29.8177V19.1823H92.7032V29.8177H91.2335Z" fill="#DE002B"/>
<path d="M94.9423 29.8177V19.1823H96.4121V28.116H100.809V29.8177H94.9423Z" fill="#DE002B"/>
<path d="M102.329 29.8177V19.1823H108.531V20.8536H103.799V23.6188H107.993V25.3052H103.799V28.1464H108.59V29.8177H102.329Z" fill="#DE002B"/>
<path d="M113.917 29.8177V19.1823H115.482L118.027 24.2113L120.572 19.1823H122.138V29.8177H120.668V22.1906L118.027 27.2044H117.979L115.362 22.221V29.8177H113.917Z" fill="#DE002B"/>
<path d="M128.282 30C127.015 30 125.971 29.4682 125.151 28.4047C124.33 27.3412 123.92 26.0497 123.92 24.5304V24.5C123.92 22.9807 124.334 21.6842 125.163 20.6105C125.999 19.5368 127.047 19 128.305 19C129.572 19 130.616 19.5318 131.436 20.5953C132.257 21.6588 132.667 22.9503 132.667 24.4696V24.5C132.667 26.0193 132.249 27.3158 131.412 28.3895C130.584 29.4632 129.54 30 128.282 30ZM126.262 27.174C126.804 27.9033 127.485 28.268 128.305 28.268C129.126 28.268 129.799 27.9084 130.325 27.1892C130.859 26.4701 131.126 25.5838 131.126 24.5304V24.5C131.126 23.4466 130.855 22.5552 130.313 21.826C129.779 21.0967 129.102 20.732 128.282 20.732C127.461 20.732 126.784 21.0916 126.25 21.8108C125.724 22.5299 125.462 23.4162 125.462 24.4696V24.5C125.462 25.5534 125.728 26.4448 126.262 27.174Z" fill="#DE002B"/>
<path d="M134.443 29.8177V19.1823H135.805L140.286 26.5359V19.1823H141.732V29.8177H140.501L135.889 22.2514V29.8177H134.443Z" fill="#DE002B"/>
<path d="M143.883 29.8177V19.1823H150.085V20.8536H145.353V23.6188H149.547V25.3052H145.353V28.1464H150.145V29.8177H143.883Z" fill="#DE002B"/>
<path d="M154.35 29.8177V25.6243L151.028 19.1823H152.773L155.103 23.8771L157.469 19.1823H159.154L155.832 25.5787V29.8177H154.35Z" fill="#DE002B"/>
<path d="M163.307 29.8177L166.988 19.1064H168.35L172.03 29.8177H170.477L169.629 27.25H165.673L164.813 29.8177H163.307ZM166.211 25.5939H169.091L167.645 21.3398L166.211 25.5939Z" fill="#DE002B"/>
<path d="M173.465 29.8177V19.1823H176.763C177.735 19.1823 178.507 19.5064 179.081 20.1547C179.655 20.8029 179.941 21.6639 179.941 22.7376V22.768C179.941 23.9125 179.623 24.8039 178.985 25.442C178.356 26.0801 177.559 26.3992 176.596 26.3992H174.935V29.8177H173.465ZM174.935 24.7127H176.643C177.193 24.7127 177.631 24.5355 177.958 24.1809C178.284 23.8264 178.448 23.3706 178.448 22.8135V22.7831C178.448 22.1653 178.288 21.6943 177.97 21.3702C177.651 21.046 177.209 20.884 176.643 20.884H174.935V24.7127Z" fill="#DE002B"/>
<path d="M181.53 29.8177V19.1823H183V29.8177H181.53Z" fill="#DE002B"/>
<path d="M48 0H0V48H48V0Z" fill="white"/>
<path d="M47.3996 0.599976H0.599609V47.4H47.3996V0.599976Z" fill="black"/>
<path d="M13.0302 31.9712V32.648C13.0302 33.4784 12.8334 34.0128 12.4142 34.4432C11.8974 34.9776 10.8894 35.392 8.84462 35.392C6.51502 35.392 5.57901 34.8928 5.03821 34.3344C4.56941 33.8544 4.29102 33.1648 4.29102 32.2928C4.29102 31.48 4.53741 30.76 5.03821 30.2432C5.57901 29.6848 6.66222 29.192 8.84462 29.192C10.5854 29.192 11.931 29.512 12.6286 29.8704V31.0736C11.7982 30.608 10.4286 30.2512 8.84462 30.2512C7.26062 30.2512 6.40781 30.5472 6.03021 30.9376C5.72621 31.2576 5.57102 31.6832 5.57102 32.2928C5.57102 32.9328 5.74381 33.36 6.03021 33.656C6.40781 34.0464 7.10542 34.368 8.84462 34.368C10.2238 34.368 11.0942 34.1136 11.4222 33.7744C11.5229 33.6771 11.602 33.5598 11.6544 33.4299C11.7067 33.3001 11.7312 33.1607 11.7262 33.0208H8.19661V31.9712H13.0302Z" fill="white"/>
<path d="M20.31 33.9951C20.4075 33.8796 20.4623 33.734 20.4652 33.5828C20.4681 33.4316 20.419 33.284 20.326 33.1647C20.1452 32.9791 19.8092 32.9023 17.7836 32.7919C15.4924 32.6735 14.7964 32.4719 14.4028 32.0719C14.1724 31.8351 14.0828 31.5055 14.0828 31.0815C14.0689 30.8712 14.0973 30.6601 14.1663 30.4609C14.2352 30.2617 14.3434 30.0783 14.4844 29.9215C14.886 29.5055 15.6748 29.2175 17.6844 29.2175C19.2844 29.2175 20.4908 29.4543 21.254 29.7679V30.8799C20.3836 30.4991 18.9404 30.2191 17.6844 30.2191C16.118 30.2191 15.6668 30.3711 15.4764 30.5663C15.428 30.6203 15.3908 30.6832 15.3669 30.7516C15.3431 30.82 15.3329 30.8924 15.3372 30.9647C15.3296 31.0972 15.3738 31.2274 15.4604 31.3279C15.6332 31.5071 16.0188 31.6079 17.8892 31.7007C20.31 31.8287 20.9836 32.0207 21.3772 32.4207C21.6219 32.7047 21.7479 33.0719 21.7292 33.4463C21.7292 33.8863 21.6396 34.2927 21.3276 34.6143C20.918 35.0383 20.1052 35.3695 17.9548 35.3695C16.3548 35.3695 14.8044 35.1055 13.918 34.7087V33.5999C14.7724 34.0239 16.5852 34.3711 17.9548 34.3711C19.5628 34.3679 20.0796 34.2399 20.31 33.9951Z" fill="white"/>
<path d="M32.8351 35.2576H31.6655V30.2976L28.5999 35.2576H27.0143L23.9487 30.2976V35.2576H22.7871V29.328H24.6959L27.8303 34.448L30.9711 29.328H32.8351V35.2576Z" fill="white"/>
<path d="M39.1156 29.2944L42.9908 35.2576H41.5748L40.6836 33.8592H35.8212L34.9284 35.2576H33.5684L37.4404 29.2944H39.1156ZM36.4884 32.8144H40.0084L38.2484 30.0448L36.4884 32.8144Z" fill="white"/>
<path d="M41.632 29.5073H41.2432V29.2913H42.24V29.5073H41.8512V30.6273H41.632V29.5073Z" fill="white"/>
<path d="M42.4658 29.2913H42.6946L43.0674 29.9201L43.4418 29.2913H43.6706V30.6225H43.4546V29.6625L43.0674 30.2897L42.685 29.6657V30.6177H42.4722L42.4658 29.2913Z" fill="white"/>
<path d="M8.60483 21.4176H4.47363V26.2912H8.60483V21.4176Z" fill="#660000"/>
<path d="M16.3554 18.9824H10.1602V26.2912H16.3554V18.9824Z" fill="#A8001D"/>
<path d="M27.194 15.3296H17.9092V26.2912H27.194V15.3296Z" fill="#CE0028"/>
<path d="M42.678 9.84961H28.9355V26.2912H42.678V9.84961Z" fill="#DE002B"/>
</svg>
