<svg width="20" height="20" viewBox="0 0 20 20" fill="none" xmlns="http://www.w3.org/2000/svg">
<path d="M20 18.9539L14.4132 13.3671C15.7557 11.7554 16.4251 9.68816 16.2822 7.59546C16.1394 5.50276 15.1952 3.5457 13.6462 2.1314C12.0971 0.717102 10.0624 -0.0455472 7.96541 0.00210587C5.86838 0.049759 3.87046 0.904045 2.38725 2.38725C0.904045 3.87046 0.049759 5.86838 0.00210587 7.96541C-0.0455472 10.0624 0.717102 12.0971 2.1314 13.6462C3.5457 15.1952 5.50276 16.1394 7.59546 16.2822C9.68816 16.4251 11.7554 15.7557 13.3671 14.4132L18.9539 20L20 18.9539ZM1.50572 8.16366C1.50572 6.84685 1.89621 5.5596 2.62779 4.46471C3.35937 3.36982 4.3992 2.51645 5.61578 2.01253C6.83236 1.50861 8.17105 1.37676 9.46256 1.63366C10.7541 1.89055 11.9404 2.52466 12.8715 3.45579C13.8027 4.38692 14.4368 5.57325 14.6937 6.86476C14.9506 8.15628 14.8187 9.49497 14.3148 10.7115C13.8109 11.9281 12.9575 12.968 11.8626 13.6995C10.7677 14.4311 9.48048 14.8216 8.16366 14.8216C6.39847 14.8196 4.70613 14.1176 3.45795 12.8694C2.20977 11.6212 1.50768 9.92886 1.50572 8.16366Z" fill="#BEBEBF"/>
</svg>
