<svg width="32" height="32" viewBox="0 0 32 32" fill="none" xmlns="http://www.w3.org/2000/svg">
<path d="M29.5 9.49728H26.45C26.45 9.34726 26.5 9.14724 26.5 8.99722C26.5 6.24687 24.25 3.99659 21.5 3.99659C21.5 3.99659 21.5 3.99659 21.45 3.99659C19.55 0.996207 15.55 0.0960929 12.5 1.99633C11.7 2.4964 11 3.19649 10.5 3.99659C10.5 3.99659 10.5 3.99659 10.45 3.99659C7.7 3.99659 5.45 6.24687 5.45 8.99722C5.45 9.14724 5.45 9.34726 5.5 9.49728H2.5C1.65 9.49728 1 10.1474 1 10.9975V29.4998C1 30.3499 1.65 31 2.5 31H15C15.35 31 15.75 30.85 16 30.6C16.25 30.85 16.65 31 17 31H29.5C30.35 31 31 30.3499 31 29.4998V10.9975C31 10.1474 30.35 9.49728 29.5 9.49728ZM15 29.9999H2.5C2.2 29.9999 2 29.7998 2 29.4998V28.9997H15C15.3 28.9997 15.5 29.1998 15.5 29.4998C15.5 29.7998 15.3 29.9999 15 29.9999ZM30 29.4998C30 29.7998 29.8 29.9999 29.5 29.9999H17C16.7 29.9999 16.5 29.7998 16.5 29.4998C16.5 29.1998 16.7 28.9997 17 28.9997H30V29.4998ZM30 27.9996H17C16.65 27.9996 16.25 28.1496 16 28.3997C15.75 28.1496 15.35 27.9996 15 27.9996H2V10.9975C2 10.6974 2.2 10.4974 2.5 10.4974H5.75C6.4 12.5977 8.35 13.9979 10.5 13.9979H12.5V12.9977H10.5C8.3 12.9977 6.5 11.1975 6.5 8.99722C6.5 6.99697 8 5.29675 10 5.04672C9.7 5.84682 9.5 6.64692 9.5 7.49703H10.5C10.5 4.44664 12.95 1.99633 16 1.99633C19.05 1.99633 21.5 4.44664 21.5 7.49703H22.5C22.5 6.64692 22.35 5.79681 22 5.04672C24.2 5.34676 25.75 7.34701 25.45 9.54729C25.2 11.5475 23.5 13.0477 21.5 13.0477H19.5V14.0479H21.5C23.7 14.0479 25.6 12.6477 26.25 10.5474H29.5C29.8 10.5474 30 10.7474 30 11.0475V27.9996Z" fill="#00568F"/>
<path d="M18 20H29V21H18V20Z" fill="#00568F"/>
<path d="M18 23H29V24H18V23Z" fill="#00568F"/>
<path d="M18 25H29V26H18V25Z" fill="#00568F"/>
<path d="M4 20H15V21H4V20Z" fill="#00568F"/>
<path d="M4 23H15V24H4V23Z" fill="#00568F"/>
<path d="M4 25H15V26H4V25Z" fill="#00568F"/>
<path d="M14 10.5C14 9.65 13.35 9 12.5 9C11.65 9 11 9.65 11 10.5C11 11.35 11.65 12 12.5 12C12.7 12 12.95 11.95 13.15 11.85L14 12.7V17.5C14 17.8 13.8 18 13.5 18H4V19H13.5C14.35 19 15 18.35 15 17.5V12.3L13.85 11.15C13.95 10.95 14 10.7 14 10.5ZM12 10.5C12 10.2 12.2 10 12.5 10C12.8 10 13 10.2 13 10.5C13 10.8 12.8 11 12.5 11C12.2 11 12 10.8 12 10.5Z" fill="#00568F"/>
<path d="M19 17.5V12.7L19.85 11.85C20.05 11.95 20.25 12 20.5 12C21.35 12 22 11.35 22 10.5C22 9.65 21.35 9 20.5 9C19.65 9 19 9.65 19 10.5C19 10.7 19.05 10.95 19.15 11.15L18 12.3V17.5C18 18.35 18.65 19 19.5 19H29V18H19.5C19.2 18 19 17.8 19 17.5ZM20.5 10C20.8 10 21 10.2 21 10.5C21 10.8 20.8 11 20.5 11C20.2 11 20 10.8 20 10.5C20 10.2 20.2 10 20.5 10Z" fill="#00568F"/>
<path d="M16.5 4C15.65 4 15 4.65 15 5.5C15 6.15 15.4 6.7 16 6.9V26H17V6.9C17.8 6.65 18.2 5.75 17.9 5C17.7 4.4 17.15 4 16.5 4ZM16.5 6C16.2 6 16 5.8 16 5.5C16 5.2 16.2 5 16.5 5C16.8 5 17 5.2 17 5.5C17 5.8 16.8 6 16.5 6Z" fill="#00568F"/>
<path d="M20 15H29V16H20V15Z" fill="#00568F"/>
<path d="M4 15H13V16H4V15Z" fill="#00568F"/>
</svg>
