<svg width="26" height="30" viewBox="0 0 26 30" fill="none" xmlns="http://www.w3.org/2000/svg">
<path d="M25.2934 6.69891L13.7736 0.189235C13.3228 -0.0630782 12.7719 -0.0630782 12.3211 0.189235L0.801374 6.69891C0.300515 6.95122 0 7.45585 0 8.01093V21.9891C0 22.5442 0.300515 23.0488 0.751288 23.3011L12.271 29.8108C12.7218 30.0631 13.2728 30.0631 13.7235 29.8108L25.2433 23.3011C25.694 23.0488 25.9946 22.5442 25.9946 21.9891V8.01093C26.0446 7.45585 25.7441 6.95122 25.2934 6.69891ZM20.5352 5.13457L21.7373 5.79058L20.5352 6.59798V5.13457ZM16.5283 2.91421L18.8323 4.22624L16.5283 5.43734V2.91421ZM15.5266 5.99243L14.024 6.79983L13.5232 6.54752C13.2227 6.39613 12.822 6.39613 12.5215 6.59798L8.96537 8.81833C8.66485 9.02018 8.5146 9.32296 8.5146 9.6762V11.3415L6.0103 9.92851V7.6577L9.5664 5.43734L10.0673 5.68966C10.3678 5.84104 10.7184 5.84104 11.0189 5.68966L15.5266 3.21699V5.99243ZM9.51631 9.72666L13.0724 7.50631L13.5733 7.75862C13.8738 7.91001 14.2244 7.91001 14.5249 7.75862L19.5335 4.93272V7.20353L16.9791 8.81833L16.4782 8.56602C16.1777 8.41463 15.777 8.41463 15.4765 8.61648L11.9204 10.8368C11.6199 11.0387 11.4697 11.3415 11.4697 11.6947V13.0067L9.46623 11.8966V9.72666H9.51631ZM13.2728 13.7637C13.1225 13.8646 12.9222 13.8646 12.7719 13.7637L12.5215 13.6123V11.7452L16.0776 9.52481L16.5784 9.77712C16.8789 9.92851 17.2796 9.92851 17.5801 9.72666L22.5887 6.49706V8.51556L13.2728 13.7637ZM23.5404 6.85029L24.5421 7.40538L23.5404 7.96047V6.85029ZM12.7719 1.0471C12.9222 0.946173 13.1225 0.946173 13.2728 1.0471L15.2762 2.20774L10.518 4.83179L10.0172 4.57948C9.71666 4.42809 9.31597 4.42809 9.01545 4.62994L5.45936 6.85029C5.15884 7.05214 5.00859 7.35492 5.00859 7.70816V9.37342L1.50258 7.40538L12.7719 1.0471ZM1.25215 22.3928C1.10189 22.2918 1.00172 22.1405 1.00172 21.9386V11.2405L2.70464 12.0984C2.85489 12.1993 3.00515 12.3507 3.00515 12.5526V13.0067C2.20378 13.3095 1.80309 14.1674 2.10361 14.9243C2.40412 15.7317 3.25558 16.1354 4.00687 15.8326C4.75816 15.5299 5.20893 14.672 4.90841 13.9151C4.75816 13.4609 4.40756 13.1581 4.00687 13.0067V12.5526C4.00687 11.9975 3.70635 11.4424 3.15541 11.1901L1.00172 10.1304V8.26325L12.271 14.6215C12.3211 14.672 12.4213 14.672 12.5215 14.7225V20.1724L8.26417 17.8511C8.11391 17.7502 8.01374 17.5988 8.01374 17.397V16.3877C8.81511 16.0849 9.2158 15.2271 8.91528 14.4701C8.61477 13.7132 7.76331 13.259 7.01202 13.5618C6.21065 13.8646 5.80996 14.7225 6.11047 15.4794C6.26073 15.9336 6.61133 16.2363 7.01202 16.3877V17.397C7.01202 17.9521 7.31253 18.4567 7.81339 18.709L12.5215 21.2826V26.1775L8.26417 23.8562C8.11391 23.7553 8.01374 23.6039 8.01374 23.402V21.5349C8.01374 20.9798 7.71322 20.5257 7.26245 20.2229L5.50944 19.2136C5.50944 19.1632 5.50944 19.0622 5.50944 19.0118C5.50944 18.1539 4.85833 17.4979 4.00687 17.4979C3.15541 17.4979 2.50429 18.1539 2.50429 19.0118C2.50429 19.8696 3.15541 20.5257 4.00687 20.5257C4.40756 20.5257 4.75816 20.3743 5.05867 20.122L6.81168 21.1817C6.96193 21.2826 7.06211 21.434 7.06211 21.6358V23.5029C7.06211 24.058 7.36262 24.5627 7.86348 24.815L12.5715 27.3886V28.7511L1.25215 22.3928ZM4.00687 14.4701C4.00687 14.7729 3.80652 14.9748 3.50601 14.9748C3.20549 14.9748 3.00515 14.7729 3.00515 14.4701C3.00515 14.1674 3.20549 13.9655 3.50601 13.9655C3.80652 13.9655 4.00687 14.1674 4.00687 14.4701ZM7.01202 14.9748C7.01202 14.672 7.21236 14.4701 7.51288 14.4701C7.81339 14.4701 8.01374 14.672 8.01374 14.9748C8.01374 15.2775 7.81339 15.4794 7.51288 15.4794C7.21236 15.4794 7.01202 15.2775 7.01202 14.9748ZM4.50773 19.0118C4.50773 19.3146 4.30738 19.5164 4.00687 19.5164C3.70635 19.5164 3.50601 19.3146 3.50601 19.0118C3.50601 18.709 3.70635 18.5071 4.00687 18.5071C4.30738 18.5071 4.50773 18.709 4.50773 19.0118ZM24.7925 22.3928L13.5232 28.7511V24.3608L18.2313 21.7872C18.7321 21.5349 19.0326 21.0303 19.0326 20.4752V18.6585C19.0326 18.4567 19.1328 18.3053 19.3331 18.2044L21.5369 17.0942C22.1379 17.6493 23.0896 17.6493 23.6405 17.0437C24.1915 16.4382 24.1915 15.4794 23.5904 14.9243C22.9894 14.3692 22.0378 14.3692 21.4868 14.9748C21.1863 15.2271 21.0361 15.5803 21.0361 15.984V16.1859L18.8323 17.296C18.3314 17.5484 17.9808 18.053 17.9808 18.6585V20.4752C17.9808 20.677 17.8807 20.8284 17.7304 20.9294L13.5232 23.2002V18.3053L14.9757 17.5484C15.5767 18.1034 16.5283 18.1034 17.0793 17.4979C17.6302 16.8923 17.6302 15.9336 17.0292 15.3785C16.4282 14.8234 15.4765 14.8234 14.9256 15.4289C14.6752 15.7317 14.5249 16.0849 14.5249 16.4886V16.6905L13.5232 17.1951V14.7225C13.6234 14.7225 13.6734 14.672 13.7736 14.6215L25.0429 8.26325V18.2044L22.5887 19.4659C21.9877 18.9109 21.0361 18.9108 20.4851 19.5164C19.9342 20.122 19.9342 21.0807 20.5352 21.6358C21.1362 22.1909 22.0879 22.1909 22.6388 21.5854C22.8892 21.2826 23.0395 20.9294 23.0395 20.5257C23.0395 20.4752 23.0395 20.4247 23.0395 20.3238L25.0429 19.3145V21.9386C25.0429 22.1405 24.9428 22.2918 24.7925 22.3928ZM22.0378 15.984C22.0378 15.6812 22.2381 15.4794 22.5386 15.4794C22.8391 15.4794 23.0395 15.6812 23.0395 15.984C23.0395 16.2868 22.8391 16.4886 22.5386 16.4886C22.2381 16.4886 22.0378 16.2868 22.0378 15.984ZM15.5266 16.4886C15.5266 16.1859 15.727 15.984 16.0275 15.984C16.328 15.984 16.5283 16.1859 16.5283 16.4886C16.5283 16.7914 16.328 16.9933 16.0275 16.9933C15.727 16.9933 15.5266 16.7914 15.5266 16.4886ZM22.0378 20.5257C22.0378 20.8284 21.8374 21.0303 21.5369 21.0303C21.2364 21.0303 21.0361 20.8284 21.0361 20.5257C21.0361 20.2229 21.2364 20.021 21.5369 20.021C21.8374 20.021 22.0378 20.2229 22.0378 20.5257Z" fill="#FA6C28"/>
</svg>
