<?xml version="1.0" standalone="no"?>
<!DOCTYPE svg PUBLIC "-//W3C//DTD SVG 20010904//EN"
 "http://www.w3.org/TR/2001/REC-SVG-20010904/DTD/svg10.dtd">
<svg version="1.0" xmlns="http://www.w3.org/2000/svg"
 width="200.000000pt" height="200.000000pt" viewBox="0 0 200.000000 200.000000"
 preserveAspectRatio="xMidYMid meet">
<metadata>
Created by potrace 1.14, written by Peter Selinger 2001-2017
</metadata>
<g transform="translate(0.000000,200.000000) scale(0.100000,-0.100000)"
fill="#000000" stroke="none">
<path d="M0 1000 l0 -1000 1000 0 1000 0 0 1000 0 1000 -1000 0 -1000 0 0
-1000z m470 -231 c46 -10 50 -13 50 -39 l0 -28 -37 14 c-21 7 -73 13 -116 14
-75 0 -113 -10 -129 -34 -11 -16 -10 -74 2 -96 28 -52 228 -50 238 3 3 15 -5
17 -66 17 -61 0 -70 2 -75 20 -5 19 0 20 99 20 l104 0 0 -34 c0 -73 -59 -106
-185 -105 -89 1 -134 17 -162 59 -38 55 -23 143 29 171 56 30 158 37 248 18z
m370 0 c44 -9 50 -14 50 -36 0 -19 -4 -24 -16 -19 -9 3 -47 11 -84 17 -84 14
-145 3 -145 -26 0 -18 11 -21 114 -31 99 -10 117 -15 133 -34 24 -30 23 -53
-5 -86 -22 -25 -32 -28 -108 -32 -47 -2 -111 1 -142 8 -51 10 -57 14 -57 37 0
20 4 24 18 18 37 -14 169 -28 205 -21 39 7 58 29 40 47 -5 5 -55 13 -110 18
-113 10 -140 20 -149 57 -8 31 21 75 57 85 38 11 144 10 199 -2z m259 -103
l64 -106 41 64 c23 36 53 85 67 108 23 39 29 43 65 42 l39 -1 0 -124 c0 -121
-1 -124 -22 -127 -23 -3 -23 -1 -23 97 0 56 -3 101 -7 101 -5 0 -35 -45 -67
-100 -56 -94 -62 -100 -92 -100 -30 0 -36 7 -96 103 l-63 102 -3 -102 c-3
-102 -3 -103 -27 -103 l-25 0 0 123 c0 68 2 126 4 128 2 2 21 4 42 3 37 -1 39
-3 103 -108z m620 -10 c44 -68 81 -126 81 -130 0 -3 -13 -6 -28 -6 -20 0 -32
8 -45 30 l-18 30 -104 0 -104 0 -21 -30 c-14 -19 -30 -30 -46 -30 -13 0 -24 2
-24 5 0 3 36 62 81 130 77 118 83 125 114 125 31 0 37 -7 114 -124z m42 92
c-3 -24 -6 -27 -9 -13 -2 11 -9 26 -14 33 -8 9 -5 12 9 12 16 0 19 -5 14 -32z
m60 23 c6 10 9 4 8 -21 0 -25 -2 -30 -8 -17 -4 10 -11 18 -16 18 -5 0 -12 -8
-16 -18 -6 -13 -8 -9 -8 16 -1 29 1 32 15 20 13 -10 17 -10 25 2z"/>
<path d="M1566 685 l-36 -55 70 0 c38 0 70 2 70 4 0 5 -62 106 -65 106 -1 0
-19 -25 -39 -55z"/>
</g>
</svg>
