<svg width="12" height="12" viewBox="0 0 12 12" fill="none" xmlns="http://www.w3.org/2000/svg">
    <path fill-rule="evenodd" clip-rule="evenodd" d="M8.78528 0.177711C9.00962 -0.0592368 9.37336 -0.0592368 9.5977 0.177711L11.8317 2.53726C12.0561 2.77421 12.0561 3.15838 11.8317 3.39532L9.5977 5.75487C9.37336 5.99182 9.00962 5.99182 8.78528 5.75487C8.56094 5.51793 8.56094 5.13376 8.78528 4.89681L10.0386 3.57303H1.21277C0.895496 3.57303 0.638298 3.30139 0.638298 2.96629C0.638298 2.6312 0.895496 2.35955 1.21277 2.35955H10.0386L8.78528 1.03577C8.56094 0.798825 8.56094 0.414658 8.78528 0.177711ZM3.21472 6.24513C3.43906 6.48207 3.43906 6.86624 3.21472 7.10319L1.96136 8.42697H10.7872C11.1045 8.42697 11.3617 8.69862 11.3617 9.03371C11.3617 9.3688 11.1045 9.64045 10.7872 9.64045H1.96136L3.21472 10.9642C3.43906 11.2012 3.43906 11.5853 3.21472 11.8223C2.99038 12.0592 2.62664 12.0592 2.4023 11.8223L0.168258 9.46274C-0.0560859 9.22579 -0.0560859 8.84162 0.168258 8.60468L2.4023 6.24513C2.62664 6.00818 2.99038 6.00818 3.21472 6.24513Z" fill="#242529"/>
</svg>
