<svg width="22" height="32" viewBox="0 0 22 32" fill="none" xmlns="http://www.w3.org/2000/svg">
<path d="M6.45 3H11.55C11.7986 3 12 2.7762 12 2.5C12 2.2238 11.7986 2 11.55 2H6.45C6.20142 2 6 2.2238 6 2.5C6 2.7762 6.20142 3 6.45 3Z" fill="white"/>
<path d="M6.45 5H11.55C11.7986 5 12 4.7762 12 4.5C12 4.2238 11.7986 4 11.55 4H6.45C6.20142 4 6 4.2238 6 4.5C6 4.7762 6.20142 5 6.45 5Z" fill="white"/>
<path d="M6.45 7H11.55C11.7986 7 12 6.7762 12 6.5C12 6.2238 11.7986 6 11.55 6H6.45C6.20142 6 6 6.2238 6 6.5C6 6.7762 6.20142 7 6.45 7Z" fill="white"/>
<path d="M16 15.871V10.129C16 9.50652 15.5221 9 14.9348 9H3.06522C2.47789 9 2 9.50652 2 10.129V15.871C2 16.4935 2.47789 17 3.06522 17H8.93396C9.18614 17 9.39048 16.7834 9.39048 16.5161C9.39048 16.2488 9.18614 16.0323 8.93396 16.0323H3.06522C2.98128 16.0323 2.91304 15.9599 2.91304 15.871V10.129C2.91304 10.0401 2.98128 9.96774 3.06522 9.96774H14.9348C15.0187 9.96774 15.087 10.0401 15.087 10.129V15.871C15.087 15.9599 15.0187 16.0323 14.9348 16.0323H6.19355C5.94137 16.0323 5.73703 16.2488 5.73703 16.5161C5.73703 16.7834 5.94137 17 6.19355 17H14.9348C15.5221 17 16 16.4935 16 15.871Z" fill="white"/>
<path d="M5 19.7C5 19.314 4.686 19 4.3 19H2.7C2.314 19 2 19.314 2 19.7V21.3C2 21.686 2.314 22 2.7 22H4.3C4.686 22 5 21.686 5 21.3V19.7ZM4 21H3V20H4V21Z" fill="white"/>
<path d="M9 19.7C9 19.314 8.686 19 8.3 19H6.7C6.314 19 6 19.314 6 19.7V21.3C6 21.686 6.314 22 6.7 22H8.3C8.686 22 9 21.686 9 21.3V19.7ZM8 21H7V20H8V21Z" fill="white"/>
<path d="M11.3 19H9.7C9.314 19 9 19.314 9 19.7V21.3C9 21.686 9.314 22 9.7 22H11.3C11.686 22 12 21.686 12 21.3V19.7C12 19.314 11.686 19 11.3 19ZM11 21H10V20H11V21Z" fill="white"/>
<path d="M5 23.7C5 23.314 4.686 23 4.3 23H2.7C2.314 23 2 23.314 2 23.7V25.3C2 25.686 2.314 26 2.7 26H4.3C4.686 26 5 25.686 5 25.3V23.7ZM4 25H3V24H4V25Z" fill="white"/>
<path d="M9 23.7C9 23.314 8.686 23 8.3 23H6.7C6.314 23 6 23.314 6 23.7V25.3C6 25.686 6.314 26 6.7 26H8.3C8.686 26 9 25.686 9 25.3V23.7ZM8 25H7V24H8V25Z" fill="white"/>
<path d="M11.3 23H9.7C9.314 23 9 23.314 9 23.7V25.3C9 25.686 9.314 26 9.7 26H11.3C11.686 26 12 25.686 12 25.3V23.7C12 23.314 11.686 23 11.3 23ZM11 25H10V24H11V25Z" fill="white"/>
<path d="M4.3 27H2.7C2.314 27 2 27.314 2 27.7V29.3C2 29.686 2.314 30 2.7 30H4.3C4.686 30 5 29.686 5 29.3V27.7C5 27.314 4.686 27 4.3 27ZM4 29H3V28H4V29Z" fill="white"/>
<path d="M8.3 27H6.7C6.314 27 6 27.314 6 27.7V29.3C6 29.686 6.314 30 6.7 30H8.3C8.686 30 9 29.686 9 29.3V27.7C9 27.314 8.686 27 8.3 27ZM8 29H7V28H8V29Z" fill="white"/>
<path d="M11.3 27H9.7C9.314 27 9 27.314 9 27.7V29.3C9 29.686 9.314 30 9.7 30H11.3C11.686 30 12 29.686 12 29.3V27.7C12 27.314 11.686 27 11.3 27ZM11 29H10V28H11V29Z" fill="white"/>
<path d="M16 19.7C16 19.314 15.7174 19 15.37 19H13.63C13.2826 19 13 19.314 13 19.7V21.3C13 21.686 13.2826 22 13.63 22H15.37C15.7174 22 16 21.686 16 21.3V19.7ZM15.1 21H13.9V20H15.1V21Z" fill="white"/>
<path d="M15.37 23H13.63C13.2826 23 13 23.314 13 23.7V29.3C13 29.686 13.2826 30 13.63 30H15.37C15.7174 30 16 29.686 16 29.3V23.7C16 23.314 15.7174 23 15.37 23ZM15.1 29H13.9V24H15.1V29Z" fill="white"/>
<path d="M19.6429 7.53494H18.2286V4.65625C18.2286 3.19156 17.0302 2 15.5571 2H14.2686V1.40625C14.2686 0.630875 13.6341 0 12.8543 0H5.37429C4.59448 0 3.96 0.630875 3.96 1.40625V2H2.67143C1.19837 2 0 3.19156 0 4.65625V29.3438C0 30.8084 1.19837 32 2.67143 32H13.7537C14.0141 32 14.2251 31.7902 14.2251 31.5312C14.2251 31.2723 14.0141 31.0625 13.7537 31.0625H2.67143C1.71833 31.0625 0.942857 30.2914 0.942857 29.3438V4.65625C0.942857 3.70856 1.71833 2.9375 2.67143 2.9375H3.96V7.09713C3.96 7.35606 4.17101 7.56588 4.43143 7.56588C4.69185 7.56588 4.90286 7.35606 4.90286 7.09713V1.40625C4.90286 1.14775 5.11431 0.9375 5.37429 0.9375H12.8543C13.1143 0.9375 13.3257 1.14775 13.3257 1.40625V7.5625H4.90286V6.26725C4.90286 6.00831 4.69185 5.7985 4.43143 5.7985C4.17101 5.7985 3.96 6.00831 3.96 6.26725V7.5625H2.35714C2.09673 7.5625 1.88571 7.77231 1.88571 8.03125C1.88571 8.29019 2.09673 8.5 2.35714 8.5H15.8714C16.1318 8.5 16.3429 8.29019 16.3429 8.03125C16.3429 7.77231 16.1318 7.5625 15.8714 7.5625H14.2686V2.9375H15.5571C16.5102 2.9375 17.2857 3.70856 17.2857 4.65625V29.3438C17.2857 30.2914 16.5102 31.0625 15.5571 31.0625H12.9245C12.6641 31.0625 12.4531 31.2723 12.4531 31.5312C12.4531 31.7902 12.6641 32 12.9245 32H15.5571C17.0302 32 18.2286 30.8084 18.2286 29.3438V28.7849H19.6429C20.9426 28.7849 22 27.7336 22 26.4412V9.87869C22 8.58631 20.9426 7.53494 19.6429 7.53494ZM21.0571 26.4412C21.0571 27.0522 20.663 27.5733 20.1143 27.7668V16.3364C20.1143 16.0775 19.9033 15.8677 19.6429 15.8677C19.3824 15.8677 19.1714 16.0775 19.1714 16.3364V27.8474H18.2286V8.47244H19.1714V17.1503C19.1714 17.4093 19.3824 17.6191 19.6429 17.6191C19.9033 17.6191 20.1143 17.4093 20.1143 17.1503V8.55306C20.663 8.74656 21.0571 9.26763 21.0571 9.87869V26.4412Z" fill="white"/>
</svg>
