<svg width="48" height="48" viewBox="0 0 48 48" fill="none" xmlns="http://www.w3.org/2000/svg">
<path d="M48 0H0V48H48V0Z" fill="white"/>
<path d="M47.3996 0.600006H0.599609V47.4H47.3996V0.600006Z" fill="black"/>
<path d="M13.0302 31.9712V32.648C13.0302 33.4784 12.8334 34.0128 12.4142 34.4432C11.8974 34.9776 10.8894 35.392 8.84462 35.392C6.51502 35.392 5.57901 34.8928 5.03821 34.3344C4.56941 33.8544 4.29102 33.1648 4.29102 32.2928C4.29102 31.48 4.53741 30.76 5.03821 30.2432C5.57901 29.6848 6.66222 29.192 8.84462 29.192C10.5854 29.192 11.931 29.512 12.6286 29.8704V31.0736C11.7982 30.608 10.4286 30.2512 8.84462 30.2512C7.26062 30.2512 6.40781 30.5472 6.03021 30.9376C5.72621 31.2576 5.57102 31.6832 5.57102 32.2928C5.57102 32.9328 5.74381 33.36 6.03021 33.656C6.40781 34.0464 7.10542 34.368 8.84462 34.368C10.2238 34.368 11.0942 34.1136 11.4222 33.7744C11.5229 33.6771 11.602 33.5598 11.6544 33.4299C11.7067 33.3001 11.7312 33.1607 11.7262 33.0208H8.19661V31.9712H13.0302Z" fill="white"/>
<path d="M20.31 33.9952C20.4075 33.8796 20.4623 33.734 20.4652 33.5828C20.4681 33.4316 20.419 33.284 20.326 33.1648C20.1452 32.9792 19.8092 32.9024 17.7836 32.792C15.4924 32.6736 14.7964 32.472 14.4028 32.072C14.1724 31.8352 14.0828 31.5056 14.0828 31.0816C14.0689 30.8712 14.0973 30.6602 14.1663 30.461C14.2352 30.2617 14.3434 30.0784 14.4844 29.9216C14.886 29.5056 15.6748 29.2176 17.6844 29.2176C19.2844 29.2176 20.4908 29.4544 21.254 29.768V30.88C20.3836 30.4992 18.9404 30.2192 17.6844 30.2192C16.118 30.2192 15.6668 30.3712 15.4764 30.5664C15.428 30.6203 15.3908 30.6833 15.3669 30.7517C15.3431 30.8201 15.3329 30.8925 15.3372 30.9648C15.3296 31.0973 15.3738 31.2275 15.4604 31.328C15.6332 31.5072 16.0188 31.608 17.8892 31.7008C20.31 31.8288 20.9836 32.0208 21.3772 32.4208C21.6219 32.7048 21.7479 33.072 21.7292 33.4464C21.7292 33.8864 21.6396 34.2928 21.3276 34.6144C20.918 35.0384 20.1052 35.3696 17.9548 35.3696C16.3548 35.3696 14.8044 35.1056 13.918 34.7088V33.6C14.7724 34.024 16.5852 34.3712 17.9548 34.3712C19.5628 34.368 20.0796 34.24 20.31 33.9952Z" fill="white"/>
<path d="M32.8351 35.2576H31.6655V30.2976L28.5999 35.2576H27.0143L23.9487 30.2976V35.2576H22.7871V29.328H24.6959L27.8303 34.448L30.9711 29.328H32.8351V35.2576Z" fill="white"/>
<path d="M39.1156 29.2944L42.9908 35.2576H41.5748L40.6836 33.8592H35.8212L34.9284 35.2576H33.5684L37.4404 29.2944H39.1156ZM36.4884 32.8144H40.0084L38.2484 30.0448L36.4884 32.8144Z" fill="white"/>
<path d="M41.632 29.5072H41.2432V29.2912H42.24V29.5072H41.8512V30.6272H41.632V29.5072Z" fill="white"/>
<path d="M42.4658 29.2912H42.6946L43.0674 29.92L43.4418 29.2912H43.6706V30.6224H43.4546V29.6624L43.0674 30.2896L42.685 29.6656V30.6176H42.4722L42.4658 29.2912Z" fill="white"/>
<path d="M8.60483 21.4176H4.47363V26.2912H8.60483V21.4176Z" fill="#660000"/>
<path d="M16.3554 18.9824H10.1602V26.2912H16.3554V18.9824Z" fill="#A8001D"/>
<path d="M27.194 15.3296H17.9092V26.2912H27.194V15.3296Z" fill="#CE0028"/>
<path d="M42.678 9.84961H28.9355V26.2912H42.678V9.84961Z" fill="#DE002B"/>
</svg>
