<svg width="32" height="32" viewBox="0 0 32 32" fill="none" xmlns="http://www.w3.org/2000/svg">
<path d="M2.5 28.4242H4.4L4.1 29.9697H3V31H9V29.9697H7.9L7.6 28.4242H9.5C10.35 28.4242 11 27.7545 11 26.8788V22.7576C11 21.8818 10.35 21.2121 9.5 21.2121H6.5V20.697C6.5 20.3879 6.7 20.1818 7 20.1818H12.5C13.35 20.1818 14 19.5121 14 18.6364V14H13V18.6364C13 18.9455 12.8 19.1515 12.5 19.1515H7C6.15 19.1515 5.5 19.8212 5.5 20.697V21.2121H2.5C1.65 21.2121 1 21.8818 1 22.7576V26.8788C1 27.7545 1.65 28.4242 2.5 28.4242ZM6.9 29.9697H5.1L5.4 28.4242H6.6L6.9 29.9697ZM9.5 27.3939H2.5C2.2 27.3939 2 27.1879 2 26.8788V26.3636H10V26.8788C10 27.1879 9.8 27.3939 9.5 27.3939ZM2.5 22.2424H9.5C9.8 22.2424 10 22.4485 10 22.7576V25.3333H2V22.7576C2 22.4485 2.2 22.2424 2.5 22.2424Z" fill="#00A182"/>
<path d="M30.5 22.7576C30.5 21.8818 29.85 21.2121 29 21.2121H26.5V20.697C26.5 19.8212 25.85 19.1515 25 19.1515H19.5C19.2 19.1515 19 18.9455 19 18.6364V14H18V18.6364C18 19.5121 18.65 20.1818 19.5 20.1818H25C25.3 20.1818 25.5 20.3879 25.5 20.697V21.2121H23C22.15 21.2121 21.5 21.8818 21.5 22.7576V26.3121L21 28.3212V29.4545C21 30.3303 21.65 31 22.5 31H29.5C30.35 31 31 30.3303 31 29.4545V28.4242L30.5 26.3121V22.7576ZM29.6 26.8788L29.85 27.9091H22.15L22.4 26.8788H29.6ZM22.5 22.7576C22.5 22.4485 22.7 22.2424 23 22.2424H29C29.3 22.2424 29.5 22.4485 29.5 22.7576V25.8485H22.5V22.7576ZM29.5 29.9697H22.5C22.2 29.9697 22 29.7636 22 29.4545V28.9394H30V29.4545C30 29.7636 29.8 29.9697 29.5 29.9697Z" fill="#00A182"/>
<path d="M15.5 14V21.2121H14.5C13.65 21.2121 13 21.8818 13 22.7576V29.4545C13 30.3303 13.65 31 14.5 31H17.5C18.35 31 19 30.3303 19 29.4545V22.7576C19 21.8818 18.35 21.2121 17.5 21.2121H16.5V14H15.5ZM17.5 29.9697H14.5C14.2 29.9697 14 29.7636 14 29.4545V28.9394H18V29.4545C18 29.7636 17.8 29.9697 17.5 29.9697ZM18 22.7576V27.9091H14V22.7576C14 22.4485 14.2 22.2424 14.5 22.2424H17.5C17.8 22.2424 18 22.4485 18 22.7576Z" fill="#00A182"/>
<path d="M23.0115 16.0005H20.0173V17H23.0115C26.3052 17 29 14.3013 29 11.003C29 7.70457 26.3052 5.0059 23.0115 5.0059C22.9616 5.0059 22.9616 5.0059 22.9117 5.0059C20.7159 1.20777 15.8752 -0.141566 12.0326 2.05735C10.8349 2.75701 9.78695 3.75652 9.08829 5.0059C9.03839 5.0059 9.03839 5.0059 8.98848 5.0059C5.69482 5.0059 3 7.70457 3 11.003C3 14.3013 5.69482 17 8.98848 17H11.9827V16.0005H8.98848C6.24376 16.0005 3.99808 13.7516 3.99808 11.003C3.99808 8.40423 5.99424 6.25529 8.58925 6.00541C8.23992 6.95494 8.04031 8.00443 8.04031 9.00393H9.03839C9.03839 5.15583 12.1823 2.00738 16.025 2.00738C19.8676 2.00738 23.0115 5.15583 23.0115 9.00393H24.0096C24.0096 8.00443 23.81 6.95494 23.4107 6.00541C26.1555 6.25529 28.2015 8.65411 27.952 11.4028C27.7524 14.0015 25.6065 16.0005 23.0115 16.0005Z" fill="#00A182"/>
</svg>
